HIERARCHY
ROOT Hips
{
	OFFSET 0.000000 88.474243 0.000000
	CHANNELS 6 Xposition Yposition Zposition Zrotation Yrotation Xrotation 
	JOINT Hips_Spine
	{
		OFFSET 0.000000 0.000000 0.000000
		CHANNELS 3 Zrotation Yrotation Xrotation
		JOINT Spine
		{
			OFFSET 0.005100 8.711998 -0.691000
			CHANNELS 3 Zrotation Yrotation Xrotation
			JOINT Spine1
			{
				OFFSET -0.009200 8.660301 -1.275000
				CHANNELS 3 Zrotation Yrotation Xrotation
				JOINT Spine2
				{
					OFFSET 0.006300 9.852501 -1.857000
					CHANNELS 3 Zrotation Yrotation Xrotation
					JOINT Spine2_Neck
					{
						OFFSET 0.000000 0.000000 0.000000
						CHANNELS 3 Zrotation Yrotation Xrotation
						JOINT Neck
						{
							OFFSET 0.016300 11.420799 -0.263300
							CHANNELS 3 Zrotation Yrotation Xrotation
							End Site #name: Head
							{
								OFFSET -0.019200 9.262405 2.362500
							}
						}
					}
					JOINT Spine2_LeftShoulder
					{
						OFFSET 0.000000 0.000000 0.000000
						CHANNELS 3 Zrotation Yrotation Xrotation
						JOINT LeftShoulder
						{
							OFFSET 5.616900 6.732201 -0.345700
							CHANNELS 3 Zrotation Yrotation Xrotation
							JOINT LeftArm
							{
								OFFSET 10.664888 -0.183372 -2.440700
								CHANNELS 3 Zrotation Yrotation Xrotation
								JOINT LeftForeArm
								{
									OFFSET 27.459126 0.000000 0.000000
									CHANNELS 3 Zrotation Yrotation Xrotation
									End Site #name: LeftHand
									{
										OFFSET 21.306858 0.000000 0.000000
									}
								}
							}
						}
					}
					JOINT Spine2_RightShoulder
					{
						OFFSET 0.000000 0.000000 0.000000
						CHANNELS 3 Zrotation Yrotation Xrotation
						JOINT RightShoulder
						{
							OFFSET -5.580300 6.737503 -0.344400
							CHANNELS 3 Zrotation Yrotation Xrotation
							JOINT RightArm
							{
								OFFSET -10.679335 -0.188484 -2.383900
								CHANNELS 3 Zrotation Yrotation Xrotation
								JOINT RightForeArm
								{
									OFFSET -27.503529 0.000000 0.000000
									CHANNELS 3 Zrotation Yrotation Xrotation
									End Site #name: RightHand
									{
										OFFSET -21.306808 0.000000 0.000000
									}
								}
							}
						}
					}
				}
			}
		}
	}
	JOINT Hips_LeftUpLeg
	{
		OFFSET 0.000000 0.000000 0.000000
		CHANNELS 3 Zrotation Yrotation Xrotation
		JOINT LeftUpLeg
		{
			OFFSET 6.857700 -6.739601 0.312100
			CHANNELS 3 Zrotation Yrotation Xrotation
			JOINT LeftLeg
			{
				OFFSET -0.367590 -34.731552 -4.572400
				CHANNELS 3 Zrotation Yrotation Xrotation
				End Site #name: LeftFoot
				{
					OFFSET 0.367590 -34.656704 -6.067400
				}
			}
		}
	}
	JOINT Hips_RightUpLeg
	{
		OFFSET 0.000000 0.000000 0.000000
		CHANNELS 3 Zrotation Yrotation Xrotation
		JOINT RightUpLeg
		{
			OFFSET -6.876100 -6.733299 0.301000
			CHANNELS 3 Zrotation Yrotation Xrotation
			JOINT RightLeg
			{
				OFFSET 0.347353 -34.795158 -4.515900
				CHANNELS 3 Zrotation Yrotation Xrotation
				End Site #name: RightFoot
				{
					OFFSET -0.347353 -34.589367 -6.070300
				}
			}
		}
	}
}
MOTION
Frames: 19
Frame Time: 0.041667
0.029706 0.006970 -0.027527 -5.133270 -1.017420 -6.778603 0.000000 0.000000 0.000000 1.691647 1.312681 18.009334 1.370377 0.842072 3.506927 0.000000 0.000000 0.000000 1.780588 0.704530 2.613030 0.581898 -0.210237 6.557504 1.217361 0.429799 4.017374 -10.886953 -5.518919 1.385496 -55.886153 -7.037666 17.602855 0.547908 -32.829811 -0.118530 1.829717 0.502373 4.444043 8.788561 -4.589615 0.489180 71.788244 7.987785 32.783231 -0.052157 20.519807 0.875673 0.000000 0.000000 0.000000 8.190729 7.660642 -67.212411 5.136161 -5.452697 68.011738 0.000000 0.000000 0.000000 -3.062538 -8.808956 -56.047884 0.119650 -0.187747 67.515284 
0.067918 0.017920 -0.114346 -5.698931 -0.456266 -5.963781 0.000000 0.000000 0.000000 2.536592 1.008830 16.234165 1.176480 0.344431 3.515775 0.000000 0.000000 0.000000 1.188477 0.484554 3.340828 0.781212 -0.663661 6.021237 1.287684 0.539212 4.000924 -8.751351 -3.300189 0.273106 -59.870340 -12.396871 9.436716 -0.074975 -33.678768 1.120040 0.863506 0.280240 3.945639 7.876658 -3.149885 0.467040 73.018542 14.207055 25.490903 0.239070 28.124096 0.727346 0.000000 0.000000 -0.000000 7.572736 8.633229 -68.471200 5.388582 -4.775211 67.564306 0.000000 0.000000 0.000000 -2.164280 -9.007366 -58.769276 0.696109 0.018923 67.474550 
0.066029 0.001725 -0.171109 -5.824826 0.632690 -5.648561 0.000000 0.000000 0.000000 3.788243 0.933869 17.210962 0.904616 0.440892 3.226986 0.000000 0.000000 0.000000 1.058273 0.398270 3.036725 1.335149 -0.299747 6.394971 1.051928 0.590872 3.666223 -8.558238 -3.628266 0.104525 -60.076583 -9.913474 9.702483 -0.014179 -33.091278 0.969961 0.775273 0.456680 3.569613 6.896596 -2.133582 0.584976 71.901823 16.550748 25.150277 0.332193 33.144512 0.339231 0.000000 0.000000 0.000000 7.889381 8.113451 -69.003822 4.831278 -4.687907 67.069020 0.000000 0.000000 0.000000 -2.492596 -8.219498 -59.703900 0.543631 -0.257726 68.488215 
0.064937 -0.015021 -0.224598 -6.023669 0.996316 -5.647457 0.000000 0.000000 0.000000 3.786324 1.401286 17.308376 0.832709 0.408800 3.378354 0.000000 0.000000 0.000000 1.081279 0.455653 2.889487 1.224793 -0.103511 6.895198 0.938253 0.516396 3.474433 -8.004490 -4.191855 0.296538 -61.166477 -8.866636 8.016493 -0.059947 -32.803443 1.052688 0.810120 0.475954 3.698563 6.697658 -1.950743 0.668431 72.131393 19.050746 23.931277 0.324989 38.435851 0.205199 -0.000000 0.000000 0.000000 7.851565 8.099060 -69.069589 4.625569 -4.392018 66.917733 0.000000 0.000000 0.000000 -2.404773 -8.106821 -60.415288 0.792718 -0.326325 69.535993 
0.070925 -0.024831 -0.272862 -6.134228 1.207746 -5.673413 0.000000 0.000000 0.000000 3.885698 1.669170 17.844426 0.806567 0.381530 3.520641 0.000000 0.000000 0.000000 1.068970 0.475613 2.936971 1.207226 -0.055442 7.485791 0.906306 0.465301 3.458012 -7.767507 -4.361835 0.388818 -61.315606 -9.725466 7.038798 -0.100312 -33.434113 1.104552 0.806743 0.474943 3.920429 7.031373 -2.201353 0.660065 72.241041 20.749196 23.231467 0.259406 41.702000 0.108935 -0.000000 0.000000 0.000000 7.941006 8.031066 -69.073071 4.553902 -4.111241 66.866836 0.000000 0.000000 0.000000 -2.448402 -7.994147 -60.684756 1.050622 -0.348996 70.076989 
0.080631 -0.029132 -0.316692 -6.191909 1.196728 -5.712830 0.000000 0.000000 0.000000 3.932252 1.694433 18.261979 0.815941 0.348718 3.576058 0.000000 0.000000 0.000000 1.057257 0.455144 2.986907 1.170953 -0.055411 7.789673 0.901217 0.414078 3.500886 -7.806159 -4.124757 0.380748 -60.999849 -10.686383 7.277133 -0.107275 -34.352157 1.099975 0.797449 0.449745 4.030204 7.454795 -2.320360 0.648589 72.176363 21.487906 22.785021 0.225568 42.914034 0.070347 -0.000000 0.000000 0.000000 8.062750 8.146261 -69.108851 4.549778 -4.025737 67.138581 0.000000 0.000000 0.000000 -2.537520 -7.847495 -60.647034 1.177922 -0.365276 70.230871 
0.092194 -0.029042 -0.356887 -6.206806 1.111981 -5.726779 0.000000 0.000000 0.000000 3.948240 1.655094 18.519615 0.834816 0.324609 3.580063 0.000000 0.000000 0.000000 1.061910 0.436374 2.988172 1.164376 -0.076626 7.882619 0.925498 0.392864 3.518549 -7.737849 -3.698035 0.312376 -60.544734 -11.212091 7.814521 -0.101051 -35.083624 1.116136 0.806340 0.432080 4.046628 7.727575 -2.293489 0.661341 72.084509 21.829259 22.485735 0.225274 42.977240 0.080601 -0.000000 0.000000 0.000000 8.137882 8.230478 -69.171638 4.541157 -4.060393 67.383820 0.000000 0.000000 0.000000 -2.606047 -7.752618 -60.472572 1.225814 -0.363732 70.129336 
0.102344 -0.027129 -0.394666 -6.200163 1.053563 -5.722851 0.000000 0.000000 0.000000 3.940250 1.633697 18.570683 0.839540 0.308324 3.572628 0.000000 0.000000 0.000000 1.068274 0.416172 3.006122 1.155816 -0.090552 7.984020 0.951419 0.388961 3.553173 -7.678035 -3.382905 0.256941 -60.130818 -11.419822 8.345222 -0.106835 -36.051644 1.130778 0.813387 0.426861 4.036702 7.788589 -2.192187 0.662525 72.089540 21.830682 22.085659 0.245854 42.659683 0.103439 -0.000000 0.000000 0.000000 8.167595 8.247910 -69.262007 4.488741 -4.110037 67.606125 0.000000 0.000000 0.000000 -2.659934 -7.699073 -60.274467 1.224400 -0.348482 69.942198 
0.107265 -0.024907 -0.431237 -6.192494 1.035568 -5.702248 0.000000 0.000000 0.000000 3.926754 1.614549 18.590752 0.846650 0.302919 3.578484 0.000000 0.000000 0.000000 1.074819 0.403788 3.045457 1.142829 -0.117239 8.105466 0.962501 0.392631 3.584250 -7.555622 -3.075810 0.190475 -59.907476 -11.357076 8.810204 -0.113241 -36.986237 1.146990 0.811800 0.425527 4.040202 7.772046 -2.094394 0.676566 72.103330 21.753409 21.822207 0.259295 42.459995 0.132250 -0.000000 0.000000 0.000000 8.179252 8.236245 -69.349911 4.414115 -4.171024 67.759720 0.000000 0.000000 0.000000 -2.693145 -7.681684 -60.170718 1.221734 -0.334517 69.815876 
0.107807 -0.022943 -0.466731 -6.182508 1.036396 -5.679064 0.000000 0.000000 0.000000 3.921815 1.597940 18.630533 0.846095 0.300273 3.600278 0.000000 0.000000 0.000000 1.074855 0.398210 3.072943 1.124967 -0.131704 8.187424 0.960710 0.394321 3.600674 -7.445489 -2.801723 0.114842 -59.864343 -11.259007 9.145946 -0.120235 -37.777640 1.163381 0.807371 0.422428 4.050580 7.707752 -2.053551 0.690056 72.117619 21.617351 21.535711 0.263501 42.530081 0.156855 -0.000000 0.000000 0.000000 8.181854 8.209936 -69.426659 4.336152 -4.229629 67.853532 0.000000 0.000000 0.000000 -2.710476 -7.686144 -60.188187 1.214697 -0.319329 69.817422 
0.104703 -0.020780 -0.501477 -6.174338 1.047324 -5.661425 0.000000 0.000000 0.000000 3.932941 1.566460 18.692287 0.837871 0.298471 3.626500 0.000000 0.000000 0.000000 1.071903 0.393136 3.094368 1.106782 -0.137584 8.253331 0.952129 0.392371 3.610972 -7.334007 -2.548707 0.038996 -59.942389 -11.212324 9.429282 -0.126042 -38.359488 1.172498 0.800415 0.418360 4.069333 7.647979 -2.075895 0.695816 72.102659 21.474548 21.183575 0.268591 43.035452 0.181730 -0.000000 0.000000 0.000000 8.189657 8.174827 -69.510300 4.270204 -4.276560 67.943666 0.000000 0.000000 0.000000 -2.721841 -7.699134 -60.264110 1.209138 -0.309654 69.891662 
0.098654 -0.018067 -0.535672 -6.167017 1.058278 -5.653691 0.000000 0.000000 0.000000 3.959399 1.527140 18.798253 0.831216 0.299323 3.672629 0.000000 0.000000 0.000000 1.069162 0.389428 3.113783 1.094249 -0.144270 8.304909 0.944199 0.388160 3.618057 -7.213162 -2.307425 -0.033409 -60.128724 -11.191477 9.681133 -0.154781 -39.767669 1.203663 0.796719 0.412582 4.095494 7.597503 -2.139218 0.694495 72.036834 21.336775 20.727863 0.273071 43.911192 0.209177 -0.000000 0.000000 0.000000 8.198770 8.149260 -69.596681 4.218375 -4.313480 68.037500 0.000000 0.000000 0.000000 -2.727800 -7.710547 -60.352552 1.201034 -0.301930 69.997096 
0.090447 -0.014621 -0.569499 -6.160804 1.068487 -5.653552 0.000000 0.000000 0.000000 3.992998 1.488721 18.913781 0.824894 0.297627 3.717003 0.000000 0.000000 0.000000 1.068086 0.386078 3.133267 1.083549 -0.157779 8.371829 0.940347 0.382506 3.630936 -7.110697 -2.079573 -0.098138 -60.343460 -11.158004 9.907310 -0.175374 -40.821446 1.225508 0.796012 0.407188 4.125607 7.561247 -2.219516 0.687859 71.975125 21.140871 20.222502 0.271997 45.285515 0.234533 -0.000000 0.000000 0.000000 8.203376 8.127378 -69.673214 4.176768 -4.343438 68.119697 0.000000 0.000000 0.000000 -2.730121 -7.720072 -60.430543 1.194258 -0.297369 70.087040 
0.080609 -0.010592 -0.603048 -6.156344 1.077367 -5.658547 0.000000 0.000000 0.000000 4.021666 1.445239 19.020335 0.820908 0.294707 3.760278 0.000000 0.000000 0.000000 1.068919 0.382372 3.157216 1.069628 -0.174924 8.454608 0.941065 0.378341 3.648113 -7.030205 -1.860699 -0.152506 -60.560786 -11.067825 10.126061 -0.192515 -41.694103 1.246174 0.795963 0.403309 4.158431 7.524867 -2.287222 0.681811 71.934382 20.929816 19.652370 0.273806 46.936991 0.265175 -0.000000 0.000000 0.000000 8.211662 8.111560 -69.741291 4.140877 -4.370539 68.204413 0.000000 0.000000 0.000000 -2.733958 -7.729358 -60.494539 1.187400 -0.293978 70.157951 
0.069749 -0.006134 -0.636430 -6.149862 1.085514 -5.664899 0.000000 0.000000 0.000000 4.049469 1.405972 19.124529 0.818989 0.290095 3.804686 0.000000 0.000000 0.000000 1.071090 0.379705 3.182580 1.059412 -0.193984 8.554809 0.944157 0.374259 3.667099 -6.975617 -1.633802 -0.203730 -60.757841 -10.950331 10.356281 -0.211412 -42.772864 1.270918 0.796269 0.400732 4.192183 7.481707 -2.335804 0.679860 71.958846 20.714488 19.109978 0.276687 48.638854 0.295414 -0.000000 0.000000 0.000000 8.214754 8.100112 -69.794313 4.111013 -4.392203 68.276232 0.000000 0.000000 0.000000 -2.736688 -7.733413 -60.543797 1.181567 -0.290970 70.212213 
0.058502 -0.001416 -0.669883 -6.142868 1.093953 -5.670950 0.000000 0.000000 0.000000 4.074334 1.367736 19.221209 0.818750 0.284453 3.849145 0.000000 0.000000 0.000000 1.072657 0.378202 3.217422 1.054488 -0.217167 8.679021 0.949444 0.370515 3.690366 -6.928328 -1.405128 -0.253728 -60.930731 -10.803078 10.607450 -0.234795 -44.223526 1.300271 0.795818 0.398864 4.224466 7.419354 -2.363864 0.679513 72.039735 20.536658 18.561500 0.295986 50.597916 0.338686 -0.000000 0.000000 0.000000 8.217207 8.090804 -69.832517 4.084418 -4.409847 68.339280 0.000000 0.000000 0.000000 -2.741409 -7.736304 -60.576620 1.175977 -0.288452 70.247318 
0.047382 0.003354 -0.703536 -6.134568 1.103753 -5.677482 0.000000 0.000000 0.000000 4.096412 1.328058 19.310232 0.819571 0.278609 3.890926 0.000000 0.000000 0.000000 1.074928 0.376717 3.254903 1.053418 -0.242322 8.814998 0.955556 0.366859 3.710840 -6.881164 -1.164933 -0.302694 -61.096913 -10.642198 10.911148 -0.260436 -45.744745 1.332846 0.795826 0.397154 4.255709 7.331107 -2.388705 0.677279 72.051126 20.398502 17.888159 0.314367 52.951722 0.370242 -0.000000 0.000000 0.000000 8.217479 8.089351 -69.867713 4.061239 -4.420877 68.401274 0.000000 0.000000 0.000000 -2.747985 -7.737015 -60.597916 1.170947 -0.287124 70.269542 
0.036399 0.008202 -0.737383 -6.125322 1.113119 -5.681154 0.000000 0.000000 0.000000 4.115264 1.284282 19.390939 0.825359 0.273297 3.935570 0.000000 0.000000 0.000000 1.076025 0.374016 3.292548 1.054120 -0.267913 8.951801 0.960956 0.362388 3.731957 -6.845089 -0.921637 -0.354010 -61.270626 -10.522784 11.256995 -0.288956 -47.333321 1.368122 0.794632 0.395128 4.283206 7.244329 -2.391806 0.675089 71.930449 20.213836 17.016477 0.329539 55.235439 0.400257 -0.000000 0.000000 0.000000 8.219120 8.085655 -69.900867 4.044040 -4.429976 68.459402 0.000000 0.000000 0.000000 -2.754943 -7.737186 -60.623256 1.164863 -0.285972 70.292086 
0.025539 0.013037 -0.771404 -6.114563 1.121505 -5.683526 0.000000 0.000000 0.000000 4.131647 1.243815 19.461453 0.829231 0.268375 3.977280 0.000000 0.000000 0.000000 1.076695 0.370715 3.327266 1.054705 -0.292557 9.085643 0.964647 0.357794 3.750896 -6.798332 -0.692036 -0.401724 -61.452414 -10.398441 11.638024 -0.318655 -48.898149 1.403505 0.793069 0.392819 4.308685 7.157410 -2.387665 0.672659 71.820126 20.061175 16.225240 0.350932 57.694933 0.435008 -0.000000 0.000000 0.000000 8.217640 8.084842 -69.928678 4.029118 -4.437014 68.510637 0.000000 0.000000 0.000000 -2.760481 -7.738297 -60.636455 1.159673 -0.283259 70.303088 
